<svg height="512pt" viewBox="-4 0 512 512.19048" width="512pt" xmlns="http://www.w3.org/2000/svg"><path d="m8.773438 182.429688h485.964843c4.792969 0 8.679688 3.882812 8.679688 8.675781v156.203125c0 4.792968-3.886719 8.679687-8.679688 8.679687h-485.964843c-4.792969 0-8.679688-3.886719-8.679688-8.679687v-156.203125c0-4.792969 3.886719-8.675781 8.679688-8.675781zm0 0" fill="#cb8252"/><path d="m468.707031 460.121094h-399.1875l6.59375-17.355469c-4.292969-6.417969-6.589843-13.96875-6.59375-21.695313 0-15.792968 8.675781-39.050781 34.710938-39.050781 10.105469-.566406 19.683593 4.558594 24.820312 13.277344 4.554688 5.519531 12.027344 7.6875 18.832031 5.46875 2.714844-.902344 5.554688-1.371094 8.414063-1.390625 5.867187-.015625 11.5625 1.976562 16.144531 5.644531 5.898438 4.21875 13.8125 4.289063 19.785156.171875 12.550782-7.753906 28.40625-7.753906 40.957032 0 5.976562 4.117188 13.886718 4.046875 19.789062-.171875 4.578125-3.667969 10.273438-5.660156 16.140625-5.644531 5.734375.03125 11.308594 1.917969 15.878907 5.382812 4.097656 3.28125 9.421874 4.609376 14.578124 3.644532 1.40625-.25 2.828126-.363282 4.253907-.347656 2.496093-.011719 4.980469.335937 7.375 1.042968 4.9375 1.6875 10.386719.84375 14.582031-2.257812 12.523438-9.949219 30.253906-9.949219 42.78125 0 4.242188 3.136718 9.746094 4.011718 14.75 2.34375 2.351562-.773438 4.816406-1.15625 7.292969-1.128906 3.332031-.003907 6.632812.644531 9.71875 1.910156 5.890625 2.625 12.773437 1.574218 17.613281-2.691406 7.65625-6.941407 18.292969-9.554688 28.292969-6.941407 11.484375 3.058594 20.109375 12.570313 22.042969 24.296875 1.074218 6.167969.160156 12.519532-2.605469 18.136719zm0 0" fill="#fac176"/><path d="m8.773438 442.765625h485.964843c4.792969 0 8.679688 3.886719 8.679688 8.679687v52.066407c0 4.792969-3.886719 8.679687-8.679688 8.679687h-485.964843c-4.792969 0-8.679688-3.886718-8.679688-8.679687v-52.066407c0-4.792968 3.886719-8.679687 8.679688-8.679687zm0 0" fill="#cb8252"/><g fill="#805333"><path d="m231.449219 512.191406h-26.988281c-13.710938-11.109375-39.484376-24.992187-82.875-24.992187-45.386719 0-60.65625 15.011719-65.777344 24.992187h-20.65625c4.082031-15.101562 20.570312-44.433594 86.433594-44.433594 70.117187 0 101.273437 33.238282 109.863281 44.433594zm0 0"/><path d="m458.984375 466.804688c-.0625 23.878906-18.527344 43.667968-42.347656 45.386718h-17.09375c-20.21875 0-57.796875-3.90625-84.351563-28.984375-33.324218-31.503906-55.539062-39.917969-109.949218-40.441406h85.652343c13.207031 7.699219 25.394531 17.03125 36.273438 27.769531 22.300781 21.175782 55.105469 24.300782 72.722656 24.300782h16.746094c14.105469-1.898438 24.71875-13.800782 24.992187-28.03125 0-15.273438-15.445312-24.039063-42.347656-24.039063h50.679688c5.902343 6.605469 9.121093 15.179687 9.023437 24.039063zm0 0"/><path d="m168.707031 182.429688c-14.242187 27.363281-42.3125 44.742187-73.152343 45.296874-30.84375-.554687-58.914063-17.933593-73.15625-45.296874h25.511718c.554688.820312 1.164063 1.601562 1.824219 2.339843 11.550781 14.1875 29.019531 22.222657 47.304687 21.761719 18.285157-.457031 35.332032-9.359375 46.15625-24.101562zm0 0"/><path d="m181.636719 252.71875c.183593 2.539062-.660157 5.042969-2.339844 6.949219-1.679687 1.910156-4.058594 3.066406-6.597656 3.203125-10.152344.609375-20.046875 1.738281-30.546875 2.863281-23.035156 2.816406-46.214844 4.292969-69.421875 4.425781-24.460938.765625-48.910157-1.890625-72.636719-7.894531v-20.132813c10.9375 3.90625 32.457031 8.765626 72.636719 8.765626 22.507812-.128907 44.992187-1.546876 67.339843-4.253907 10.761719-1.214843 20.914063-2.257812 31.414063-2.863281 2.542969-.210938 5.0625.625 6.976563 2.308594 1.917968 1.6875 3.0625 4.082031 3.175781 6.628906zm0 0"/><path d="m122.019531 304.613281c.214844 2.523438-.59375 5.027344-2.242187 6.953125-1.644532 1.925782-3.996094 3.109375-6.519532 3.289063-7.203124.605469-14.320312 1.734375-21.871093 2.863281-15.722657 2.839844-31.660157 4.351562-47.640625 4.511719-14.742188.332031-29.449219-1.507813-43.652344-5.46875v-20.480469c13.957031 5.128906 28.800781 7.402344 43.652344 6.683594 14.988281-.121094 29.9375-1.515625 44.691406-4.164063 7.894531-1.304687 15.359375-2.429687 23.34375-3.039062 2.53125-.191407 5.039062.636719 6.960938 2.296875 1.921874 1.660156 3.101562 4.019531 3.277343 6.554687zm0 0"/><path d="m503.417969 296.371094v19.089844c-5.121094.347656-11.457031.609374-18.570313.609374-25.664062.289063-51.253906-2.800781-76.105468-9.199218-2.871094-.871094-5.175782-3.015625-6.25-5.816406-.710938-1.921876-.769532-4.027344-.171876-5.988282.160157-.683594.457032-1.332031.867188-1.90625 2.066406-3.960937 6.675781-5.863281 10.933594-4.515625 29.179687 7.222657 59.308594 9.828125 89.296875 7.726563zm0 0"/><path d="m284.523438 270.273438c-9.0625.011718-18.105469-.886719-26.988282-2.679688-3.421875-.695312-6.214844-3.164062-7.324218-6.472656-1.109376-3.3125-.367188-6.964844 1.945312-9.582032 2.3125-2.617187 5.84375-3.800781 9.265625-3.105468 17.554687 3.40625 35.632813 2.980468 53.007813-1.242188 19.015624-4.402344 38.253906-7.792968 57.628906-10.160156 3.464844-.425781 6.894531 1.03125 8.996094 3.820312 2.101562 2.789063 2.554687 6.488282 1.191406 9.703126-1.367188 3.210937-4.34375 5.453124-7.808594 5.878906-18.691406 2.28125-37.246094 5.550781-55.59375 9.796875-11.246094 2.65625-22.761719 4.011719-34.320312 4.042969zm0 0"/><path d="m294.390625 355.761719c-32.636719 0-41.878906-6.515625-53.230469-17.261719-5.296875-5.378906-11.417968-9.875-18.136718-13.320312-5.660157-2.9375-11.511719-5.492188-17.511719-7.644532-4.394531-1.578125-6.679688-6.417968-5.101563-10.8125 1.574219-4.394531 6.417969-6.679687 10.8125-5.101562 6.695313 2.402344 13.222656 5.25 19.542969 8.519531 8.136719 4.171875 15.570313 9.597656 22.023437 16.082031 8.320313 7.878906 13.347657 12.632813 41.601563 12.632813 29.75 0 35.023437-6.941407 43.007813-17.449219 8.574218-11.28125 19.25-25.332031 56.304687-33.21875 4.566406-.972656 9.058594 1.941406 10.03125 6.507812.972656 4.566407-1.941406 9.058594-6.507813 10.03125-30.921874 6.578126-38.765624 16.914063-46.359374 26.902344-9.015626 11.871094-18.335938 24.132813-56.476563 24.132813zm0 0"/></g><path d="m359.265625 118.210938c-3.507813 0-6.671875-2.113282-8.015625-5.355469-1.339844-3.246094-.597656-6.976563 1.882812-9.457031l48.597657-48.597657c10.015625-10.035156 10.015625-26.28125 0-36.316406l-3.472657-3.472656c-2.3125-2.164063-3.261718-5.414063-2.476562-8.480469.785156-3.070312 3.175781-5.464844 6.242188-6.257812 3.066406-.789063 6.320312.152343 8.488281 2.460937l3.46875 3.46875c16.78125 16.820313 16.78125 44.046875 0 60.867187l-48.59375 48.597657c-1.625 1.625-3.824219 2.539062-6.121094 2.542969zm0 0" fill="#d1d4d1"/><path d="m407.960938 113.003906c-2.300782 0-4.507813-.914062-6.136719-2.542968l-43.390625-43.390626c-3.289063-3.402343-3.242188-8.816406.105468-12.164062 3.347657-3.347656 8.761719-3.394531 12.167969-.105469l43.386719 43.390625c2.480469 2.480469 3.222656 6.214844 1.882812 9.457032-1.34375 3.242187-4.507812 5.355468-8.015624 5.355468zm0 0" fill="#d1d4d1"/><path d="m377.414062 127.757812c-4.78125-4.445312-11.609374-5.910156-17.789062-3.820312-7.371094 2.492188-12.328125 9.40625-12.324219 17.183594.007813 1.984375.359375 3.949218 1.042969 5.8125l5.117188 15.882812c1.988281 6.132813.378906 12.867188-4.164063 17.441406l-38.617187 38.617188-60.746094-60.746094 41.566406-41.566406c.664062-.636719 1.425781-1.164062 2.257812-1.5625l36.1875-18.136719c6.628907-3.300781 14.621094-2.007812 19.871094 3.210938l9.460938 9.457031zm0 0" fill="#556080"/><path d="m146.753906 358.589844-7.289062 7.289062c-9.105469 8.929688-20.921875 14.578125-33.585938 16.054688-.546875.074218-1.097656.101562-1.648437.085937h-.171875c-9.351563-.324219-16.855469-7.832031-17.183594-17.179687-.015625-.609375.015625-1.21875.085938-1.824219l1.300781-7.027344c2.667969-9.929687 7.734375-19.046875 14.753906-26.554687l7.289063-7.289063 36.273437 36.273438zm0 0" fill="#d1d4d1"/><path d="m503.417969 249.25c-.023438 6.957031-3.933594 13.316406-10.128907 16.480469-6.199218 3.160156-13.644531 2.59375-19.289062-1.46875l-74.199219-53.890625 21.957031 94.328125c1.503907 6.433593-1.574218 13.058593-7.464843 16.054687l-.085938.085938c-7.046875 3.480468-15.578125.609375-19.089843-6.421875l-60.140626-119.839844 14.320313-14.320313c4.542969-4.574218 6.152344-11.308593 4.164063-17.441406l-5.117188-15.882812c-1.558594-4.542969-1.246094-9.523438.871094-13.835938 2.113281-4.316406 5.859375-7.609375 10.410156-9.160156 6.277344-2.097656 13.203125-.527344 17.960938 4.078125 0-.085937 0-.085937-.085938-.171875v-.085938l58.664062 27.679688c4.449219 1.550781 6.871094 6.351562 5.464844 10.847656l-1.820312 5.035156c-.992188 3.097657-.152344 6.488282 2.167968 8.765626l2.34375 2.34375 53.628907 53.714843c3.503906 3.460938 5.472656 8.179688 5.46875 13.105469zm0 0" fill="#a5a5a4"/><path d="m110.421875 297.71875 139.535156-139.589844 60.761719 60.734375-139.539062 139.589844c-6.773438 6.78125-17.765626 6.78125-24.542969.007813l-36.210938-36.199219c-6.78125-6.777344-6.78125-17.765625-.003906-24.542969zm0 0" fill="#8697cb"/><path d="m334.976562 194.578125 60.121094 119.796875c1.675782 3.390625 4.628906 5.976562 8.210938 7.179688 3.585937 1.207031 7.5.933593 10.882812-.757813l.050782-.058594c5.921874-2.949219 9.035156-9.582031 7.523437-16.019531l-39.050781-167.753906c-1.082032-4.945313-4.21875-9.191406-8.628906-11.675782-4.40625-2.488281-9.664063-2.972656-14.453126-1.34375-4.550781 1.542969-8.300781 4.832032-10.417968 9.144532-2.121094 4.3125-2.429688 9.292968-.863282 13.835937l5.144532 15.882813c1.988281 6.140625.367187 12.878906-4.199219 17.441406zm0 0" fill="#a5a5a4"/><path d="m108.238281 393.570312c-3.300781-4.777343-12.4375-4.191406-20.402343 1.308594-7.964844 5.503906-11.746094 13.839844-8.445313 18.617188 3.304687 4.78125 12.4375 4.195312 20.402344-1.308594 7.964843-5.503906 11.746093-13.835938 8.445312-18.617188zm0 0" fill="#fdd7ad"/><path d="m162.058594 405.632812c-2.722656-3.941406-8.128906-4.929687-12.070313-2.207031-3.945312 2.726563-4.933593 8.128907-2.207031 12.074219 2.722656 3.941406 8.128906 4.929688 12.070312 2.207031 3.945313-2.722656 4.933594-8.128906 2.207032-12.074219zm0 0" fill="#fdd7ad"/><path d="m216.878906 405.632812c-2.722656-3.941406-8.128906-4.929687-12.070312-2.207031-3.945313 2.722657-4.933594 8.128907-2.207032 12.074219 2.722657 3.941406 8.128907 4.929688 12.070313 2.207031 3.945313-2.726562 4.933594-8.128906 2.207031-12.074219zm0 0" fill="#fdd7ad"/><path d="m271.703125 405.628906c-2.722656-3.941406-8.128906-4.929687-12.074219-2.207031-3.941406 2.722656-4.929687 8.128906-2.207031 12.070313 2.726563 3.945312 8.128906 4.933593 12.074219 2.210937 3.941406-2.726563 4.929687-8.128906 2.207031-12.074219zm0 0" fill="#fdd7ad"/><path d="m352.972656 405.628906c-2.722656-3.941406-8.128906-4.929687-12.070312-2.207031-3.945313 2.722656-4.933594 8.128906-2.210938 12.074219 2.726563 3.941406 8.132813 4.929687 12.074219 2.207031 3.941406-2.726563 4.929687-8.128906 2.207031-12.074219zm0 0" fill="#fdd7ad"/><path d="m442.515625 405.632812c-2.726563-3.945312-8.128906-4.933593-12.074219-2.207031-3.941406 2.722657-4.929687 8.128907-2.207031 12.070313 2.722656 3.945312 8.128906 4.933594 12.074219 2.207031 3.941406-2.722656 4.929687-8.128906 2.207031-12.070313zm0 0" fill="#fdd7ad"/></svg>