<svg id="Capa_1" enable-background="new 0 0 497 497" height="512" viewBox="0 0 497 497" width="512" xmlns="http://www.w3.org/2000/svg"><g><path d="m480.546 351.334-95.965 20-222.647-20c-9.088 0-16.455-7.367-16.455-16.455v-38.962c0-9.088 7.367-16.454 16.455-16.454h318.612c9.087 0 16.454 7.367 16.454 16.454v38.962c0 9.088-7.367 16.455-16.454 16.455z" fill="#a4bbcf"/><path d="m480.546 279.463h-30c9.087 0 16.454 7.367 16.454 16.454v38.962c0 9.088-7.367 16.455-16.454 16.455l17.423 10 12.577-10c9.087 0 16.454-7.367 16.454-16.455v-38.962c0-9.087-7.367-16.454-16.454-16.454z" fill="#90a2bb"/><path d="m480.546 423.205-71.32 20-247.292-20c-9.088 0-16.455-7.367-16.455-16.454v-38.962c0-9.088 7.367-16.454 16.455-16.454h318.612c9.087 0 16.454 7.367 16.454 16.454v38.962c0 9.087-7.367 16.454-16.454 16.454z" fill="#7c8fa2"/><path d="m480.546 351.334h-30c9.087 0 16.454 7.367 16.454 16.454v38.962c0 9.088-7.367 16.454-16.454 16.454l19.111 20 10.889-20c9.087 0 16.454-7.367 16.454-16.454v-38.962c0-9.087-7.367-16.454-16.454-16.454z" fill="#697b8e"/><path d="m480.546 495.076h-318.612c-9.088 0-16.455-7.367-16.455-16.454v-38.962c0-9.087 7.367-16.454 16.455-16.454h318.612c9.087 0 16.454 7.367 16.454 16.454v38.962c0 9.087-7.367 16.454-16.454 16.454z" fill="#a4bbcf"/><path d="m480.546 423.205h-30c9.087 0 16.454 7.367 16.454 16.454v38.962c0 9.088-7.367 16.454-16.454 16.454h30c9.087 0 16.454-7.367 16.454-16.454v-38.961c0-9.088-7.367-16.455-16.454-16.455z" fill="#90a2bb"/><path d="m353.585 402.212c2.745-31.291 3.324-62.687 2.353-94.124-.545-17.63-88.99-52.917-88.99-52.917s27.115-242.758 23.682-243.424c-72.46-14.076-147.112-13.024-219.245 3.158-14.616-11.034-29.18-13.039-38.381-12.908-5.937.085-10.684 4.925-10.757 10.862-.119 9.687 2.138 25.243 14.706 40.554-7.944 50.989-16.205 102.34-22.079 153.769-2.088 18.282 54.762 54.862 54.762 54.862l163.292 233.032h112.667s18.994-11.43 14.907-26.443c-5.901-21.675-8.88-44.043-6.917-66.421z" fill="#ecf3fc"/><path d="m374.488 468.584c-6.092-22.117-8.723-45.047-6.77-67.904 9.876-115.578-9.642-232.584-27.626-347.736 12.238-15.167 14.447-30.513 14.328-40.1-.073-5.914-4.807-10.755-10.721-10.84-5.232-.075-12.203.539-19.935 3.113 1.084 6.464 2.889 27.302-13.672 47.827 17.984 115.152 37.502 232.158 27.626 347.736-1.953 22.857.678 45.787 6.77 67.904 4.142 15.037 1.107 26.492 1.107 26.492h30s3.035-11.455-1.107-26.492z" fill="#bed6e3"/><path d="m102.701 269.518h-78.776l-16.736 38.571c-1.395 33.615-.749 57.187 2.017 90.439 1.926 23.158-.048 46.564-6.679 68.836-2.558 8.592-2.743 16.11-2.391 21.14.26 3.709 3.355 6.573 7.073 6.573h225.718z" fill="#a4bbcf"/><path d="m343.667 1.998c-9.179-.13-23.697 1.865-38.28 12.831-4.908-1.098-9.827-2.123-14.757-3.081l-128.795 223.08s201.46-18.432 200.41-27.645c-5.881-51.587-14.166-103.096-22.153-154.239 12.24-15.17 14.447-30.518 14.328-40.104-.073-5.928-4.826-10.758-10.753-10.842z" fill="#a4bbcf"/><path d="m369.918 308.089c-1.04-33.616-3.837-67.277-7.672-100.906h-347.367c-3.841 33.629-6.645 67.291-7.691 100.906z" fill="#ef879b"/><path d="m340.092 52.944c12.238-15.167 14.447-30.513 14.328-40.1-.073-5.914-4.807-10.755-10.721-10.84-5.232-.075-12.203.539-19.935 3.113 1.084 6.464 2.889 27.302-13.672 47.827 9.414 60.277 19.24 121.062 25.059 181.883 0 0 28.145-18.432 27.094-27.645-5.882-51.586-14.166-103.095-22.153-154.238z" fill="#90a2bb"/><path d="m362.246 207.183h-30c3.835 33.629 6.632 67.291 7.672 100.906h30c-1.04-33.616-3.837-67.277-7.672-100.906z" fill="#ec6a85"/><g fill="#bed6e3"><path d="m155.53 104.378h-66.645c-4.142 0-7.5-3.358-7.5-7.5s3.358-7.5 7.5-7.5h66.645c4.142 0 7.5 3.358 7.5 7.5 0 4.143-3.358 7.5-7.5 7.5z"/><path d="m155.53 138.61h-66.645c-4.142 0-7.5-3.358-7.5-7.5s3.358-7.5 7.5-7.5h66.645c4.142 0 7.5 3.358 7.5 7.5s-3.358 7.5-7.5 7.5z"/><path d="m314.871 372.681h-66.645c-4.142 0-7.5-3.358-7.5-7.5s3.358-7.5 7.5-7.5h66.645c4.143 0 7.5 3.358 7.5 7.5 0 4.143-3.357 7.5-7.5 7.5z"/><path d="m314.871 406.913h-66.645c-4.142 0-7.5-3.358-7.5-7.5s3.358-7.5 7.5-7.5h66.645c4.143 0 7.5 3.358 7.5 7.5s-3.357 7.5-7.5 7.5z"/></g></g></svg>