<?xml version="1.0" encoding="iso-8859-1"?>
<!-- Generator: Adobe Illustrator 19.0.0, SVG Export Plug-In . SVG Version: 6.00 Build 0)  -->
<svg version="1.1" id="Capa_1" xmlns="http://www.w3.org/2000/svg" xmlns:xlink="http://www.w3.org/1999/xlink" x="0px" y="0px"
	 viewBox="0 0 512 512" style="enable-background:new 0 0 512 512;" xml:space="preserve">
<rect x="292.57" y="134.09" style="fill:#B7B2B8;" width="48.762" height="32.508"/>
<rect x="292.57" y="134.09" style="fill:#C9C6CA;" width="24.381" height="32.508"/>
<path style="fill:#6F6571;" d="M294.165,116.535l-34.102-6.82v81.27l34.102-6.82c3.799-0.76,6.533-4.095,6.533-7.969v-51.691
	C300.698,120.629,297.964,117.294,294.165,116.535z"/>
<path style="fill:#5D5360;" d="M174.73,207.238h-69.079V256h41.827c3.431,0,6.128-3.004,5.639-6.4
	C151.487,238.279,151.307,215.172,174.73,207.238z"/>
<path style="fill:#4B3F4E;" d="M155.994,223.492c3.131-6.775,8.793-12.886,18.737-16.254h-69.079v16.254H155.994z"/>
<path style="fill:#6F6571;" d="M0,123.039v54.62c0,7.748,5.469,14.419,13.066,15.938l27.569,5.514v-97.524l-27.569,5.514
	C5.469,108.621,0,115.291,0,123.039z"/>
<path style="fill:#5D5360;" d="M16.254,106.463v43.584c0,8.565-7.836,14.988-16.234,13.308L0,163.352v14.306
	c0,7.748,5.469,14.419,13.066,15.939l27.568,5.514v-97.524L16.254,106.463z"/>
<path style="fill:#FFDC64;" d="M251.937,93.46H48.762c-8.977,0-16.254,7.277-16.254,16.254v81.27
	c0,8.977,7.277,16.254,16.254,16.254h203.175c4.489,0,8.127-3.639,8.127-8.127v-97.524C260.064,97.099,256.425,93.46,251.937,93.46z
	"/>
<g>
	<path style="fill:#FFC850;" d="M113.778,190.984c-26.93,0-48.762-21.831-48.762-48.762V93.46H48.762
		c-8.977,0-16.254,7.277-16.254,16.254v81.27c0,8.977,7.277,16.254,16.254,16.254h203.175c4.488,0,8.127-3.639,8.127-8.127v-8.127
		H113.778z"/>
	<path style="fill:#FFC850;" d="M106.567,291.711l23.465-84.473H56.889L16.254,353.524H153.55
		C121.303,353.524,97.936,322.782,106.567,291.711z"/>
</g>
<path style="fill:#E1AA46;" d="M130.032,207.238H56.889L16.254,353.524h33.371l31.16-112.176
	c2.931-10.553,12.539-17.856,23.491-17.856h21.241L130.032,207.238z"/>
<path style="fill:#6F6571;" d="M154.413,418.54H8.127c-4.488,0-8.127-3.639-8.127-8.127v-48.762c0-4.488,3.639-8.127,8.127-8.127
	h146.286c4.488,0,8.127,3.639,8.127,8.127v48.762C162.54,414.901,158.901,418.54,154.413,418.54z"/>
<path style="fill:#4B3F4E;" d="M105.651,142.222H65.016c-4.492,0-8.127-3.635-8.127-8.127s3.635-8.127,8.127-8.127h40.635
	c4.492,0,8.127,3.635,8.127,8.127S110.143,142.222,105.651,142.222z"/>
<g>
	<path style="fill:#E1AA46;" d="M227.556,142.222h-8.127c-4.492,0-8.127-3.635-8.127-8.127s3.635-8.127,8.127-8.127h8.127
		c4.492,0,8.127,3.635,8.127,8.127S232.048,142.222,227.556,142.222z"/>
	<path style="fill:#E1AA46;" d="M227.556,174.73h-8.127c-4.492,0-8.127-3.635-8.127-8.127s3.635-8.127,8.127-8.127h8.127
		c4.492,0,8.127,3.635,8.127,8.127S232.048,174.73,227.556,174.73z"/>
</g>
<path style="fill:#4B3F4E;" d="M105.651,174.73H65.016c-4.492,0-8.127-3.635-8.127-8.127s3.635-8.127,8.127-8.127h40.635
	c4.492,0,8.127,3.635,8.127,8.127S110.143,174.73,105.651,174.73z"/>
<path style="fill:#B7B2B8;" d="M503.873,142.222H381.968v16.254h121.905c4.492,0,8.127-3.635,8.127-8.127
	S508.365,142.222,503.873,142.222z"/>
<g>
	<path style="fill:#5D5360;" d="M56.889,402.286c-13.465,0-24.381-10.916-24.381-24.381v-24.381H8.127
		c-4.488,0-8.127,3.639-8.127,8.127v48.762c0,4.488,3.639,8.127,8.127,8.127h146.286c4.488,0,8.127-3.639,8.127-8.127v-8.127
		L56.889,402.286L56.889,402.286z"/>
	<path style="fill:#5D5360;" d="M294.165,159.783l-34.102,6.82v24.381l34.102-6.82c3.799-0.76,6.533-4.095,6.533-7.969v-24.381
		C300.698,155.688,297.964,159.023,294.165,159.783z"/>
</g>
<path style="fill:#6F6571;" d="M384.538,168.455l-13.823,4.607c-3.314,1.105-6.785,1.668-10.279,1.668h-19.103
	c-4.488,0-8.127-3.639-8.127-8.127v-32.508c0-4.488,3.639-8.127,8.127-8.127h19.103c3.494,0,6.964,0.563,10.279,1.668l13.823,4.607
	c3.319,1.106,5.557,4.212,5.557,7.71v20.792C390.095,164.244,387.857,167.349,384.538,168.455z"/>
<path style="fill:#5D5360;" d="M384.538,152.201l-13.822,4.607c-3.314,1.105-6.785,1.668-10.279,1.668h-19.103
	c-4.489,0-8.127-3.639-8.127-8.127v16.254c0,4.488,3.638,8.127,8.127,8.127h19.103c3.494,0,6.964-0.563,10.279-1.668l13.822-4.607
	c3.319-1.106,5.558-4.212,5.558-7.71v-16.254C390.095,147.99,387.857,151.095,384.538,152.201z"/>
<g>
	<polygon style="fill:#9C969E;" points="446.984,142.222 422.603,142.222 406.349,158.476 430.73,158.476 	"/>
	<polygon style="fill:#9C969E;" points="495.746,142.222 471.365,142.222 455.111,158.476 479.492,158.476 	"/>
</g>
<g>
</g>
<g>
</g>
<g>
</g>
<g>
</g>
<g>
</g>
<g>
</g>
<g>
</g>
<g>
</g>
<g>
</g>
<g>
</g>
<g>
</g>
<g>
</g>
<g>
</g>
<g>
</g>
<g>
</g>
</svg>
