<svg id="Capa_1" enable-background="new 0 0 512 512" height="512" viewBox="0 0 512 512" width="512" xmlns="http://www.w3.org/2000/svg"><g><g><path d="m335.862 207.645-100.804 100.84-76.304 49.434-25.602-25.611-5.669-23.829 154.588-154.644c5.853-5.855 14.596-6.611 19.53-1.676l35.936 35.949c4.927 4.928 4.178 13.682-1.675 19.537z" fill="#fc0"/></g><path d="m335.862 207.645-100.804 100.84-76.304 49.434-13.451-13.456 174.267-174.33 17.968 17.975c4.926 4.928 4.177 13.682-1.676 19.537z" fill="#ff8756"/><g><path d="m343.362 79.977-41.45 41.465c-2.955 2.956-7.012 4.554-11.197 4.384-4.177-.163-8.093-2.072-10.808-5.254-23.552-27.619-66.571-39.57-90.116-44.23-7.921-1.577-13.099-9.064-11.925-16.921l2.679-17.996c.855-5.791 5.005-10.55 10.617-12.191 32.72-9.581 65.447-9.398 97.262.552 25.934 8.11 44.673 20.86 53.53 27.74 7.126 5.524 7.793 16.064 1.408 22.451z" fill="#554e56"/></g><g><path d="m507.605 233.15-58.895 58.916c-5.853 5.855-15.346 5.862-21.205 0l-28.465-28.475c-2.99-2.991-4.58-7.114-4.368-11.342.647-13.437-10.329-26.812-28.599-24.07-14.62 2.182-22.858-15.657-12.751-25.767l64.408-64.432c10.856-10.86 28.166-1.604 26.012 12.544-2.735 18.086 10.525 29.213 24.068 28.56 4.22-.205 8.341 1.386 11.331 4.377l28.465 28.475c5.859 5.863 5.859 15.352-.001 21.214z" fill="#403b41"/></g><path d="m415.314 118.379-8.435-35.588-32.685-32.598c-12.009-11.957-31.511-11.936-43.485.042l-.028.028-64.832 65.082c-11.967 12-11.96 31.509.021 43.494l32.494 32.506 43.21.799z" fill="#766d78"/><g><path d="m235.058 308.485-176.331 176.396c-5.86 5.862-14.604 6.604-19.53 1.676l-35.936-35.95c-4.934-4.936-4.185-13.675 1.675-19.537l122.547-122.592 53.784.007z" fill="#ff4a4a"/></g><path d="m181.267 308.485h53.791l-176.331 176.396c-5.86 5.862-14.604 6.604-19.53 1.676l-17.968-17.975z" fill="#c73c50"/><path d="m437.203 160.926-60.952 60.974c-.467.636-.983 1.252-1.548 1.817l-.24.24c-12.009 11.986-31.525 11.978-43.507-.007l-32.593-32.605 108.516-108.554 32.607 32.52.021.021c5.817 5.819 9.019 13.548 9.019 21.765.007 8.224-3.188 15.959-9.005 21.779l-.495.495c-.572.573-1.187 1.089-1.823 1.555z" fill="#554e56"/></g></svg>