<svg height="512pt" viewBox="-84 0 512 512" width="512pt" xmlns="http://www.w3.org/2000/svg"><path d="m176.550781 182.644531v267.5625c-.027343 9.738281-7.914062 17.625-17.652343 17.65625h-26.484376c0 24.375-19.761718 44.136719-44.136718 44.136719-24.378906 0-44.140625-19.761719-44.140625-44.136719h-26.480469c-9.738281-.03125-17.6289062-7.917969-17.65625-17.65625v-388.414062c.0273438-9.738281 7.917969-17.625 17.65625-17.65625h26.480469c0-24.375 19.761719-44.136719 44.140625-44.136719 24.375 0 44.136718 19.761719 44.136718 44.136719h26.484376c9.738281.03125 17.625 7.917969 17.652343 17.65625zm0 0" fill="#e57e25"/><path d="m88.277344 494.34375c-14.628906 0-26.484375-11.855469-26.484375-26.480469v-17.65625h-44.136719v-388.414062h44.136719v-17.65625c0-14.625 11.855469-26.480469 26.484375-26.480469 14.625 0 26.480468 11.855469 26.480468 26.480469v17.65625h44.140626v388.414062h-44.140626v17.65625c0 14.625-11.855468 26.480469-26.480468 26.480469zm0 0" fill="#f0c419"/><path d="m158.898438 61.792969v388.414062h-44.140626v17.65625c-.042968 14.605469-11.875 26.4375-26.480468 26.480469v-476.6875c14.605468.042969 26.4375 11.875 26.480468 26.480469v17.65625zm0 0" fill="#f3d55b"/><path d="m88.277344 406.070312c-14.628906 0-26.484375-11.859374-26.484375-26.484374v-38.445313c-12.519531-14.195313-11.617188-35.738281 2.042969-48.839844 13.660156-13.101562 35.21875-13.101562 48.882812 0 13.660156 13.101563 14.558594 34.644531 2.039062 48.839844v38.445313c0 14.625-11.855468 26.484374-26.480468 26.484374zm0 0" fill="#e57e25"/><path d="m114.757812 317.792969c.054688 7.53125-3.167968 14.714843-8.828124 19.6875v42.105469c0 9.75-7.902344 17.65625-17.652344 17.65625-9.753906 0-17.65625-7.90625-17.65625-17.65625v-42.105469c-5.660156-4.972657-8.882813-12.15625-8.828125-19.6875 0-14.625 11.855469-26.484375 26.484375-26.484375 14.625 0 26.480468 11.859375 26.480468 26.484375zm0 0" fill="#2c3e50"/><g fill="#f29c1f"><path d="m35.308594 88.277344c-2.347656.023437-4.605469-.898438-6.265625-2.5625-1.660157-1.660156-2.585938-3.917969-2.558594-6.265625.011719-1.15625.253906-2.292969.703125-3.355469.449219-1.070312 1.078125-2.054688 1.855469-2.914062 3.519531-3.320313 9.015625-3.320313 12.535156 0 1.613281 1.695312 2.527344 3.933593 2.558594 6.269531-.019531.589843-.078125 1.179687-.175781 1.765625-.09375.550781-.273438 1.085937-.527344 1.589844-.195313.5625-.460938 1.09375-.796875 1.585937l-1.058594 1.324219c-.859375.78125-1.84375 1.40625-2.914063 1.855468-1.058593.453126-2.199218.691407-3.355468.707032zm0 0"/><path d="m141.242188 88.277344c-2.347657.023437-4.609376-.898438-6.269532-2.5625-1.660156-1.660156-2.582031-3.917969-2.558594-6.265625.015626-1.15625.253907-2.292969.707032-3.355469.445312-1.070312 1.074218-2.054688 1.851562-2.914062 3.519532-3.320313 9.019532-3.320313 12.535156 0 1.613282 1.695312 2.527344 3.933593 2.5625 6.269531-.019531.589843-.078124 1.179687-.179687 1.765625-.09375.550781-.273437 1.085937-.527344 1.589844-.195312.5625-.460937 1.09375-.796875 1.585937l-1.058594 1.324219c-.859374.78125-1.84375 1.40625-2.910156 1.855468-1.0625.453126-2.203125.691407-3.355468.707032zm0 0"/><path d="m35.308594 441.378906c-2.347656.023438-4.605469-.898437-6.265625-2.558594-1.660157-1.660156-2.585938-3.921874-2.558594-6.269531.011719-1.152343.253906-2.292969.703125-3.355469.449219-1.066406 1.078125-2.050781 1.855469-2.910156 3.519531-3.324218 9.015625-3.324218 12.535156 0 1.613281 1.691406 2.527344 3.929688 2.558594 6.265625-.019531.59375-.078125 1.183594-.175781 1.765625-.09375.554688-.273438 1.089844-.527344 1.589844-.195313.5625-.460938 1.097656-.796875 1.589844l-1.058594 1.324218c-.859375.777344-1.84375 1.40625-2.914063 1.851563-1.058593.453125-2.199218.695313-3.355468.707031zm0 0"/><path d="m141.242188 441.378906c-2.347657.023438-4.609376-.898437-6.269532-2.558594-1.660156-1.660156-2.582031-3.921874-2.558594-6.269531.015626-1.152343.253907-2.292969.707032-3.355469.445312-1.066406 1.074218-2.050781 1.851562-2.910156 3.519532-3.324218 9.019532-3.324218 12.535156 0 1.613282 1.691406 2.527344 3.929688 2.5625 6.265625-.019531.59375-.078124 1.183594-.179687 1.765625-.09375.554688-.273437 1.089844-.527344 1.589844-.195312.5625-.460937 1.097656-.796875 1.589844l-1.058594 1.324218c-.859374.777344-1.84375 1.40625-2.910156 1.851563-1.0625.453125-2.203125.695313-3.355468.707031zm0 0"/><path d="m344.277344 150.070312c-.117188 17.261719-12.601563 31.953126-29.617188 34.851563-11.164062.011719-22.289062-1.269531-33.15625-3.816406-19.453125-3.21875-39.160156-4.65625-58.871094-4.289063-24.117187 1.148438-48.007812 5.183594-71.160156 12.023438-11.425781 3.355468-22.648437 7.378906-33.605468 12.039062-9.5 4.042969-18.917969 10.984375-29.589844 10.984375-15.925782.007813-29.886719-10.648437-34.082032-26.011719-4.195312-15.363281 2.414063-31.632812 16.132813-39.71875 14.320313-8.457031 27.695313-2.648437 42.523437.707032 21.273438 5.117187 43.164063 7.214844 65.023438 6.230468 6.179688-.351562 12.269531-1.058593 18.273438-1.941406 20.046874-3.25 39.683593-8.632812 58.582031-16.066406 9.398437-3.53125 18.675781-7.390625 27.910156-11.34375 8.085937-4.71875 17.039063-7.765625 26.324219-8.960938 9.367187 0 18.347656 3.722657 24.96875 10.34375 6.621094 6.621094 10.34375 15.601563 10.34375 24.96875zm0 0"/></g></svg>