<svg height="512pt" viewBox="-46 0 512 512" width="512pt" xmlns="http://www.w3.org/2000/svg"><path d="m417 256c0 114.324219-92.675781 207-207 207s-207-92.675781-207-207 92.675781-207 207-207 207 92.675781 207 207zm0 0" fill="#f0c48a"/><path d="m221.539062 380.359375c-2.03125 0-4.003906-1.058594-5.089843-2.945313-1.609375-2.804687-.644531-6.390624 2.164062-8.003906l73.21875-42.0625c2.808594-1.613281 6.390625-.644531 8.003907 2.164063 1.613281 2.804687.644531 6.390625-2.160157 8.003906l-73.21875 42.0625c-.921875.527344-1.925781.78125-2.917969.78125zm0 0" fill="#4c4372"/><path d="m198.640625 176.832031h22.71875v329.304688h-22.71875zm0 0" fill="#fff"/><path d="m211.238281 176.832031h10.457031v327.898438h-10.457031zm0 0" fill="#d3e6f8"/><path d="m379.558594 506.136719h-24.070313l-135.386719-386.101563 21.433594-7.515625zm0 0" fill="#fff"/><path d="m40.441406 506.136719h24.070313l135.386719-386.101563-21.433594-7.515625zm0 0" fill="#fff"/><path d="m199.898438 120.035156-9.363282-3.28125-137.339844 389.382813h11.316407zm0 0" fill="#d3e6f8"/><path d="m233.035156 120.035156 9.363282-3.28125 137.339843 389.382813h-11.316406zm0 0" fill="#d3e6f8"/><path d="m379.558594 512h-24.070313c-2.492187 0-4.707031-1.574219-5.53125-3.921875l-135.386719-386.101563c-1.074218-3.054687.535157-6.402343 3.589844-7.472656l21.4375-7.515625c1.464844-.511719 3.078125-.425781 4.480469.246094 1.402344.675781 2.476563 1.878906 2.992187 3.34375l138.023438 393.617187c.628906 1.792969.347656 3.78125-.75 5.332032-1.101562 1.550781-2.882812 2.472656-4.785156 2.472656zm-19.914063-11.726562h11.648438l-133.347657-380.28125-10.371093 3.636718zm0 0" fill="#4c4372"/><path d="m64.511719 512h-24.070313c-1.902344 0-3.683594-.921875-4.785156-2.472656-1.097656-1.550782-1.378906-3.535156-.75-5.332032l138.023438-393.613281c.515624-1.46875 1.589843-2.671875 2.992187-3.34375 1.402344-.675781 3.011719-.761719 4.480469-.25l21.4375 7.519531c3.054687 1.070313 4.664062 4.414063 3.589844 7.46875l-135.386719 386.101563c-.824219 2.347656-3.039063 3.921875-5.53125 3.921875zm-15.804688-11.726562h11.648438l132.070312-376.644532-10.371093-3.636718zm0 0" fill="#4c4372"/><path d="m189.457031 144.597656h41.085938v31.808594h-41.085938zm0 0" fill="#d3e6f8"/><path d="m217.257812 144.800781h11.683594v31.402344h-11.683594zm0 0" fill="#a4cff2"/><path d="m155.855469 99.613281h108.289062v44.984375h-108.289062zm0 0" fill="#d3e6f8"/><path d="m243.128906 100.378906h21.015625v44.21875h-21.015625zm0 0" fill="#a4cff2"/><g fill="#4c4372"><path d="m230.542969 182.269531h-41.085938c-3.238281 0-5.863281-2.625-5.863281-5.863281v-31.808594c0-3.238281 2.625-5.863281 5.863281-5.863281h41.085938c3.238281 0 5.863281 2.625 5.863281 5.863281v31.808594c0 3.238281-2.625 5.863281-5.863281 5.863281zm-35.222657-11.722656h29.363282v-20.085937h-29.363282zm0 0"/><path d="m264.144531 150.460938h-108.289062c-3.238281 0-5.863281-2.625-5.863281-5.863282v-44.984375c0-3.238281 2.625-5.863281 5.863281-5.863281h108.289062c3.238281 0 5.863281 2.625 5.863281 5.863281v44.984375c0 3.238282-2.625 5.863282-5.863281 5.863282zm-102.425781-11.726563h96.5625v-33.257813h-96.5625zm0 0"/><path d="m221.359375 512h-22.71875c-3.238281 0-5.863281-2.625-5.863281-5.863281v-329.304688c0-3.238281 2.625-5.863281 5.863281-5.863281h22.71875c3.238281 0 5.863281 2.625 5.863281 5.863281v329.304688c-.003906 3.238281-2.628906 5.863281-5.863281 5.863281zm-16.855469-11.726562h10.992188v-317.582032h-10.992188zm0 0"/></g><path d="m127.078125 5.863281h166.023437v93.554688h-166.023437zm0 0" fill="#fd919e"/><path d="m293.097656 105.28125h-166.019531c-3.238281 0-5.863281-2.625-5.863281-5.863281v-93.554688c0-3.238281 2.625-5.863281 5.863281-5.863281h166.019531c3.238282 0 5.863282 2.625 5.863282 5.863281v93.554688c0 3.238281-2.625 5.863281-5.863282 5.863281zm-160.15625-11.726562h154.292969v-81.828126h-154.292969zm0 0" fill="#4c4372"/><path d="m235.664062 52.640625c0 14.125-11.449218 25.574219-25.574218 25.574219s-25.578125-11.449219-25.578125-25.574219 11.453125-25.578125 25.578125-25.578125 25.574218 11.453125 25.574218 25.578125zm0 0" fill="#e8677d"/><path d="m210.089844 84.078125c-17.335938 0-31.4375-14.101563-31.4375-31.4375s14.101562-31.4375 31.4375-31.4375c17.335937 0 31.4375 14.101563 31.4375 31.4375s-14.101563 31.4375-31.4375 31.4375zm0-51.152344c-10.871094 0-19.714844 8.84375-19.714844 19.714844s8.84375 19.710937 19.714844 19.710937c10.867187 0 19.710937-8.84375 19.710937-19.710937 0-10.871094-8.84375-19.714844-19.710937-19.714844zm0 0" fill="#4c4372"/><path d="m198.636719 380.359375c-.992188 0-1.996094-.253906-2.914063-.78125l-73.21875-42.0625c-2.808594-1.613281-3.777344-5.199219-2.164062-8.003906 1.613281-2.808594 5.195312-3.777344 8.003906-2.164063l73.21875 42.0625c2.808594 1.613282 3.777344 5.199219 2.164062 8.003906-1.085937 1.886719-3.058593 2.945313-5.089843 2.945313zm0 0" fill="#4c4372"/><path d="m413 56h-407c-3.3125 0-6-2.6875-6-6s2.6875-6 6-6h407c3.3125 0 6 2.6875 6 6s-2.6875 6-6 6zm0 0" fill="#4c4372"/></svg>