<svg id="Capa_1" enable-background="new 0 0 512 512" height="512" viewBox="0 0 512 512" width="512" xmlns="http://www.w3.org/2000/svg"><g><g><path d="m256 22c-135.31 0-245 109.69-245 245 0 15.718 1.498 31.084 4.327 45.978l1.131.583c-.007-.037-.015-.075-.023-.112 5.366-3.431 11.562-5.241 17.962-5.241 2.566 0 5.15.302 7.681.897l1.41.332-.189-1.436c-.198-1.501-.299-2.98-.299-4.397 0-18.415 14.981-33.396 33.396-33.396 10.122 0 19.588 4.527 25.972 12.421l.3.371h141.082c2.344 0 4.25 1.907 4.25 4.25v14.939l1.076-.082c.964-.073 1.768-.107 2.527-.107 5.92 0 11.761 1.595 16.89 4.613l1.507.887v-20.25c0-2.343 1.906-4.25 4.25-4.25h157.5c2.344 0 4.25 1.907 4.25 4.25v11.963l.982.017c6.474.112 12.709 2.064 18.031 5.646l.947.637.507-1.022c5.686-11.458 17.154-18.576 29.929-18.576 4.38 0 8.636.837 12.66 2.491 0 .003-.001.006-.001.01l1.06-.648c.575-6.848.885-13.772.885-20.768 0-135.31-109.69-245-245-245z" fill="#ffe5c2"/></g><g fill="#fff3de"><path d="m299.556 67.333h34.896l23.271-23.271c-.044-.02-.087-.042-.131-.062h-58.036c-6.443 0-11.667 5.223-11.667 11.667 0 6.443 5.223 11.666 11.667 11.666z"/><path d="m292.409 109.375 18.709-18.709h-43.451c-6.443 0-11.667 5.223-11.667 11.667 0 6.443 5.223 11.667 11.667 11.667h24.006c-.767-1.513-.511-3.376.736-4.625z"/></g><g><path d="m226.63 183.597c-36.508 4.074-66.7 29.047-78.326 62.691 1.947 1.464 3.807 3.069 5.559 4.821 4.797 4.797 8.561 10.471 11.137 16.65 2.575-6.178 6.34-11.853 11.137-16.65 7.74-7.739 17.509-12.705 28.107-14.428 5.423-11.4 13.073-21.535 22.386-29.845z" fill="#8ac9fe"/></g><g><path d="m226.63 183.597c-36.508 4.074-66.7 29.047-78.326 62.691 1.947 1.464 3.807 3.069 5.559 4.821 1.114 1.114 2.167 2.277 3.168 3.48 10.606-31.038 36.998-54.751 69.599-61.582z" fill="#60b7ff"/></g><path d="m486.396 284.915c-13.513 0-25.199 7.796-30.824 19.132-5.479-3.687-12.076-5.839-19.176-5.839-.133 0-.264.009-.396.01v24.733c0 2.343-1.906 4.25-4.25 4.25h-7.837l-8.466 46.8h60.989c12.856-26.436 21.101-55.526 23.679-86.232-4.203-1.832-8.841-2.854-13.719-2.854z" fill="#78a91f"/><path d="m248 322.95c0 2.343-1.906 4.25-4.25 4.25h-7.837l-8.646 47.8h63.467l-8.646-47.8h-7.837c-2.344 0-4.25-1.907-4.25-4.25v-16.611c-5.321-3.376-11.628-5.339-18.396-5.339-1.217 0-2.419.065-3.604.189v21.761z" fill="#78a91f"/><path d="m94.087 327.2h-7.837c-2.344 0-4.25-1.907-4.25-4.25v-35.7c0-2.343 1.906-4.25 4.25-4.25h17.69c-6.274-8.374-16.276-13.792-27.544-13.792-18.996 0-34.396 15.399-34.396 34.396 0 1.536.111 3.046.306 4.528-2.541-.598-5.187-.925-7.91-.925-7.055 0-13.612 2.127-19.07 5.771 4.076 21.464 10.951 41.935 20.229 61.022h66.997z" fill="#78a91f"/><path d="m476.452 374h-440.904c39.725 81.691 123.509 138 220.452 138s180.727-56.309 220.452-138z" fill="#c57a44"/><g><path d="m390.055 53.542v-11.533c0-7.214 2.809-13.997 7.911-19.098 5.101-5.101 11.884-7.911 19.099-7.911 7.214 0 13.997 2.809 19.099 7.91s7.911 11.884 7.91 19.099v55.729l15 12.273v-68.001c.001-11.222-4.369-21.772-12.304-29.707-7.935-7.933-18.484-12.303-29.706-12.303s-21.771 4.37-29.706 12.305c-7.762 7.762-12.102 18.03-12.287 28.979z" fill="#fe646f"/><path d="m341.063 174.529h-95.433v33.942h123.203z" fill="#fe646f"/><g><path d="m487.535 139.109-93.303 93.303c-2.092 2.092-5.532 1.92-7.405-.369l-95.459-116.673c-1.627-1.988-1.482-4.885.334-6.702l72.09-72.09c1.816-1.816 4.714-1.961 6.702-.334l116.673 95.459c2.289 1.874 2.46 5.315.368 7.406z" fill="#fe99a0"/></g><path d="m323.13 115.37c-1.627-1.988-1.482-4.885.334-6.702l60.996-60.996-13.967-11.428c-1.988-1.626-4.885-1.482-6.702.334l-72.09 72.09c-1.816 1.816-1.961 4.714-.334 6.702l95.459 116.673c1.873 2.289 5.313 2.461 7.405.369l13.563-13.563z" fill="#fd8087"/><g><path d="m246.63 170v43c0 2.761-2.239 5-5 5h-11c-2.761 0-5-2.239-5-5v-43c0-2.761 2.239-5 5-5h11c2.762 0 5 2.239 5 5z" fill="#fd8087"/></g></g><g fill="#d88a55"><path d="m243.643 479h-27.143c-4.142 0-7.5-3.358-7.5-7.5 0-4.142 3.358-7.5 7.5-7.5h27.143c4.142 0 7.5 3.358 7.5 7.5 0 4.142-3.358 7.5-7.5 7.5z"/><path d="m367.643 464h-27.143c-4.142 0-7.5-3.358-7.5-7.5 0-4.142 3.358-7.5 7.5-7.5h27.143c4.142 0 7.5 3.358 7.5 7.5 0 4.142-3.358 7.5-7.5 7.5z"/><path d="m106.713 397h-18.356c-4.142 0-7.5 3.358-7.5 7.5s3.358 7.5 7.5 7.5h21.069z"/><path d="m269.643 412h-27.143c-4.142 0-7.5-3.358-7.5-7.5 0-4.142 3.358-7.5 7.5-7.5h27.143c4.142 0 7.5 3.358 7.5 7.5 0 4.142-3.358 7.5-7.5 7.5z"/></g><g><g><path d="m209.177 283c11.703-12.065 16.495-28.341 14.353-43.854-.262-1.894-1.76-3.392-3.654-3.654-15.765-2.177-32.326 2.79-44.446 14.911-9.101 9.101-14.168 20.706-15.206 32.597z" fill="#81b823"/><path d="m169.776 283c-1.038-11.891-6.105-23.496-15.206-32.597-12.12-12.12-28.681-17.087-44.446-14.911-1.894.261-3.392 1.76-3.654 3.654-2.142 15.514 2.65 31.789 14.353 43.854z" fill="#8bc727"/></g><path d="m93.071 327.2 18.112 100.134c.489 2.701 2.84 4.666 5.585 4.666h96.464c2.745 0 5.097-1.964 5.585-4.666l18.112-100.134z" fill="#f6a96c"/><path d="m136.254 427.334-18.112-100.134h-25.071l18.112 100.134c.489 2.701 2.84 4.666 5.585 4.666h25.071c-2.745 0-5.096-1.964-5.585-4.666z" fill="#ea9b58"/><path d="m243.75 328.2h-157.5c-2.899 0-5.25-2.351-5.25-5.25v-35.7c0-2.9 2.351-5.25 5.25-5.25h157.5c2.899 0 5.25 2.35 5.25 5.25v35.7c0 2.899-2.351 5.25-5.25 5.25z" fill="#ea9b58"/><path d="m118.25 311.2c-2.899 0-5.25-2.35-5.25-5.25v-23.95h-26.75c-2.899 0-5.25 2.351-5.25 5.25v35.7c0 2.9 2.351 5.25 5.25 5.25h157.5c2.899 0 5.25-2.35 5.25-5.25v-11.75z" fill="#d88a55"/></g><g><g><path d="m397.177 283c11.703-12.065 16.495-28.341 14.353-43.854-.262-1.894-1.76-3.392-3.654-3.654-15.765-2.177-32.326 2.79-44.446 14.911-9.101 9.101-14.168 20.706-15.206 32.597z" fill="#81b823"/><path d="m357.776 283c-1.038-11.891-6.105-23.496-15.206-32.597-12.12-12.12-28.681-17.087-44.446-14.911-1.894.261-3.392 1.76-3.654 3.654-2.142 15.514 2.65 31.789 14.353 43.854z" fill="#8bc727"/></g><path d="m281.071 327.2 18.112 100.134c.489 2.701 2.84 4.666 5.585 4.666h96.464c2.745 0 5.097-1.964 5.585-4.666l18.112-100.134z" fill="#f6a96c"/><path d="m324.254 427.334-18.112-100.134h-25.071l18.112 100.134c.489 2.701 2.84 4.666 5.585 4.666h25.071c-2.745 0-5.096-1.964-5.585-4.666z" fill="#ea9b58"/><path d="m431.75 328.2h-157.5c-2.9 0-5.25-2.351-5.25-5.25v-35.7c0-2.9 2.35-5.25 5.25-5.25h157.5c2.9 0 5.25 2.35 5.25 5.25v35.7c0 2.899-2.35 5.25-5.25 5.25z" fill="#ea9b58"/><path d="m306.25 311.2c-2.899 0-5.25-2.35-5.25-5.25v-23.95h-26.75c-2.899 0-5.25 2.351-5.25 5.25v35.7c0 2.9 2.351 5.25 5.25 5.25h157.5c2.899 0 5.25-2.35 5.25-5.25v-11.75z" fill="#d88a55"/></g><path d="m66.804 111.333h19.529c6.444 0 11.667 5.224 11.667 11.667s-5.223 11.667-11.667 11.667h-36.551c-4.826 7.505-9.241 15.297-13.24 23.333h173.89c6.443 0 11.667-5.223 11.667-11.667 0-6.443-5.223-11.667-11.667-11.667h-57.772c-6.443 0-11.667-5.223-11.667-11.667s5.223-11.667 11.667-11.667h32.451c6.443 0 11.667-5.223 11.667-11.667 0-6.443-5.223-11.667-11.667-11.667h-96.372c-7.803 7.296-15.138 15.084-21.935 23.335z" fill="#fff3de"/><circle cx="132.5" cy="200.5" fill="#8ac9fe" r="9.5"/><path d="m131 200.5c0-3.816 2.255-7.097 5.5-8.608-1.217-.567-2.569-.892-4-.892-5.247 0-9.5 4.253-9.5 9.5s4.253 9.5 9.5 9.5c1.431 0 2.783-.325 4-.892-3.245-1.511-5.5-4.792-5.5-8.608z" fill="#60b7ff"/><circle cx="167.5" cy="188.5" fill="#8ac9fe" r="9.5"/><path d="m166 188.5c0-3.816 2.255-7.097 5.5-8.608-1.217-.567-2.569-.892-4-.892-5.247 0-9.5 4.253-9.5 9.5s4.253 9.5 9.5 9.5c1.431 0 2.783-.325 4-.892-3.245-1.511-5.5-4.792-5.5-8.608z" fill="#60b7ff"/><circle cx="243.5" cy="253.5" fill="#8ac9fe" r="9.5"/><path d="m242 253.5c0-3.816 2.255-7.097 5.5-8.608-1.217-.567-2.569-.892-4-.892-5.247 0-9.5 4.253-9.5 9.5s4.253 9.5 9.5 9.5c1.431 0 2.783-.325 4-.892-3.245-1.511-5.5-4.792-5.5-8.608z" fill="#60b7ff"/></g></svg>